<?xml version="1.0" encoding="utf-8"?>
<!-- Generator: Adobe Illustrator 21.0.0, SVG Export Plug-In . SVG Version: 6.00 Build 0)  -->
<svg version="1.1"
	 id="Layer_1" xmlns:cc="http://creativecommons.org/ns#" xmlns:dc="http://purl.org/dc/elements/1.1/" xmlns:inkscape="http://www.inkscape.org/namespaces/inkscape" xmlns:rdf="http://www.w3.org/1999/02/22-rdf-syntax-ns#" xmlns:sodipodi="http://sodipodi.sourceforge.net/DTD/sodipodi-0.dtd" xmlns:svg="http://www.w3.org/2000/svg"
	 xmlns="http://www.w3.org/2000/svg" xmlns:xlink="http://www.w3.org/1999/xlink" x="0px" y="0px" viewBox="0 0 512 512"
	 style="enable-background:new 0 0 512 512;" xml:space="preserve">
<style type="text/css">
	.st0{fill:#FFFFFF;}
</style>
<g>
	<path class="st0" d="M256,319.4c34.9,0,63.4-28.4,63.4-63.4c0-13.8-4.5-26.5-12-36.9c-11.5-16-30.2-26.4-51.4-26.4
		c-21.1,0-39.8,10.5-51.4,26.4c-7.5,10.4-12,23.2-12,36.9C192.6,290.9,221.1,319.4,256,319.4z"/>
	<path class="st0" d="M354.4,256c0,54.3-44.1,98.4-98.4,98.4c-54.3,0-98.4-44.2-98.4-98.4c0-13.1,2.6-25.5,7.3-36.9h-53.7v147.4
		c0,19,15.5,34.5,34.5,34.5h220.9c19,0,34.5-15.5,34.5-34.5l0,0V219h-53.7C351.8,230.5,354.4,242.9,354.4,256z"/>
	<polygon class="st0" points="394.3,178.5 394.3,125.4 394.3,117.5 386.4,117.5 386.4,117.5 333.3,117.7 333.5,178.7 	"/>
	<path class="st0" d="M0,0v512h512V0H0z M436,219v147.4c0,38.4-31.2,69.6-69.6,69.6H145.6c-38.4,0-69.6-31.2-69.6-69.6V219.1v-73.5
		c0-38.4,31.2-69.6,69.6-69.6h220.9h0c38.4,0,69.6,31.2,69.6,69.6V219z"/>
</g>
</svg>
