<?xml version="1.0" encoding="utf-8"?>
<!-- Generator: Adobe Illustrator 21.0.0, SVG Export Plug-In . SVG Version: 6.00 Build 0)  -->
<svg version="1.1" id="Capa_1" xmlns="http://www.w3.org/2000/svg" xmlns:xlink="http://www.w3.org/1999/xlink" x="0px" y="0px"
	 viewBox="0 0 512 512" style="enable-background:new 0 0 512 512;" xml:space="preserve">
<style type="text/css">
	.st0{fill:#FFFFFF;}
</style>
<path class="st0" d="M0,0v512h512V0H0z M403.7,295.5c2.5,3.1,8.5,9.2,17.9,18.2h0.2l0.2,0.2l0.2,0.2l0.4,0.4
	c20.8,19.4,34.9,35.7,42.3,49c0.4,0.7,0.9,1.7,1.4,2.8c0.5,1.1,1,3.1,1.6,5.9c0.5,2.8,0.5,5.3-0.1,7.5c-0.6,2.2-2.4,4.2-5.5,6.1
	c-3.1,1.8-7.5,2.8-13.1,2.8l-56.7,0.9c-3.6,0.7-7.7,0.4-12.4-1.1c-4.7-1.5-8.6-3.1-11.5-4.9l-4.4-2.7c-4.4-3.1-9.6-7.8-15.5-14.2
	c-5.9-6.4-11-12.1-15.2-17.2c-4.2-5.1-8.7-9.4-13.5-12.9c-4.8-3.5-9-4.6-12.5-3.4c-0.4,0.2-1,0.4-1.8,0.8c-0.7,0.4-2,1.4-3.8,3.2
	c-1.8,1.8-3.4,3.9-4.8,6.5c-1.4,2.6-2.7,6.4-3.8,11.5c-1.1,5.1-1.6,10.8-1.4,17.2c0,2.2-0.3,4.2-0.8,6.1c-0.5,1.8-1.1,3.2-1.7,4.1
	l-0.9,1.1c-2.7,2.8-6.6,4.4-11.7,4.9h-25.5c-10.5,0.6-21.3-0.6-32.4-3.7c-11.1-3-20.8-6.9-29.1-11.7c-8.3-4.8-16-9.7-22.8-14.6
	c-6.9-4.9-12.1-9.2-15.6-12.7l-5.5-5.3c-1.5-1.5-3.5-3.7-6.1-6.6c-2.6-3-7.9-9.7-15.8-20.2c-8-10.5-15.8-21.6-23.5-33.5
	c-7.7-11.8-16.7-27.4-27.1-46.8S53.4,194,44.5,173.2c-0.9-2.4-1.3-4.4-1.3-6c0-1.6,0.2-2.8,0.7-3.5l0.9-1.3
	c2.2-2.8,6.4-4.2,12.6-4.2l60.7-0.4c1.8,0.3,3.5,0.8,5.1,1.4c1.6,0.7,2.8,1.3,3.5,1.9l1.1,0.7c2.4,1.6,4.1,4,5.3,7.1
	c3,7.4,6.4,15,10.2,22.9c3.8,7.9,6.9,13.9,9.1,18.1l3.5,6.4c4.3,8.9,8.4,16.5,12.4,23c4,6.5,7.6,11.6,10.8,15.2
	c3.2,3.6,6.2,6.5,9.2,8.5c3,2.1,5.5,3.1,7.5,3.1c2.1,0,4.1-0.4,6-1.1c0.3-0.1,0.7-0.5,1.1-1.1c0.4-0.6,1.3-2.2,2.7-4.9
	c1.3-2.7,2.3-6.1,3-10.4c0.7-4.3,1.4-10.3,2.1-18c0.7-7.7,0.7-16.9,0-27.7c-0.3-5.9-1-11.3-2-16.2c-1-4.9-2.1-8.3-3.1-10.2l-1.3-2.7
	c-3.7-5-10-8.2-18.8-9.5c-1.9-0.3-1.5-2.1,1.1-5.3c2.5-2.8,5.3-5,8.4-6.6c7.8-3.8,25.5-5.6,53-5.3c12.1,0.1,22.1,1.1,29.9,2.9
	c3,0.7,5.4,1.7,7.4,3c2,1.3,3.5,3,4.5,5.3c1,2.3,1.8,4.7,2.3,7.1c0.5,2.4,0.8,5.8,0.8,10.1c0,4.3-0.1,8.3-0.2,12.2
	c-0.2,3.8-0.3,9-0.6,15.6c-0.2,6.6-0.3,12.7-0.3,18.3c0,1.6-0.1,4.7-0.2,9.3c-0.1,4.6-0.2,8.1-0.1,10.6c0.1,2.5,0.3,5.5,0.8,9
	c0.4,3.5,1.3,6.4,2.5,8.6c1.3,2.3,2.9,4.1,5,5.4c1.2,0.3,2.4,0.6,3.8,0.9c1.3,0.3,3.2-0.5,5.8-2.4c2.5-1.9,5.3-4.5,8.4-7.6
	c3.1-3.2,6.9-8.1,11.5-14.8c4.6-6.7,9.6-14.7,15.1-23.8c8.9-15.4,16.8-32,23.7-49.9c0.6-1.5,1.3-2.8,2.2-3.9
	c0.9-1.1,1.7-1.9,2.4-2.3l0.9-0.7l1.1-0.6c0,0,1-0.2,2.9-0.7c1.9-0.4,3.4-0.5,4.4-0.1l63.8-0.4c5.8-0.7,10.5-0.6,14.2,0.6
	c3.7,1.1,6,2.3,6.9,3.7l1.3,2.2c3.4,9.5-7.7,31.2-33.2,65.2c-3.5,4.7-8.3,11-14.4,18.8c-11.5,14.8-18.2,24.4-19.9,29
	C398.1,283.6,399.1,289.6,403.7,295.5z"/>
</svg>
